<svg width="36" height="36" viewBox="0 0 36 36" fill="none" xmlns="http://www.w3.org/2000/svg">
<path d="M28.5011 22.4999V5.99989C28.5001 5.77458 28.4483 5.5524 28.3496 5.34985C28.2509 5.1473 28.1079 4.96958 27.9311 4.82989C27.7569 4.68892 27.5532 4.5888 27.3352 4.53688C27.1171 4.48497 26.8902 4.48258 26.6711 4.52989L13.1711 7.52989C12.8379 7.60505 12.5402 7.79172 12.3275 8.05903C12.1147 8.32633 11.9996 8.65826 12.0011 8.99989V21.5099C10.9771 21.0265 9.82398 20.8881 8.71468 21.1156C7.60539 21.343 6.59975 21.9241 5.84864 22.7715C5.09753 23.6189 4.64144 24.687 4.5488 25.8156C4.45616 26.9442 4.73196 28.0724 5.33483 29.0309C5.9377 29.9895 6.83512 30.7267 7.89248 31.132C8.94983 31.5374 10.1101 31.5889 11.1992 31.2789C12.2884 30.969 13.2476 30.3142 13.9331 29.4129C14.6186 28.5115 14.9933 27.4122 15.0011 26.2799C15.0166 26.0201 15.0166 25.7597 15.0011 25.4999V10.1999L25.5011 7.87489V18.5099C24.4766 18.0262 23.3227 17.8879 22.2128 18.1159C21.103 18.3439 20.0971 18.9258 19.3461 19.7742C18.5952 20.6226 18.1398 21.6918 18.0483 22.8211C17.9568 23.9504 18.2341 25.0789 18.8387 26.0372C19.4433 26.9954 20.3424 27.7317 21.4011 28.1353C22.4598 28.539 23.6208 28.5883 24.7099 28.2758C25.799 27.9633 26.7573 27.306 27.4409 26.4024C28.1245 25.4989 28.4966 24.3979 28.5011 23.2649C28.5154 23.0101 28.5154 22.7547 28.5011 22.4999V22.4999Z" fill="#FFD12C"/>
</svg>
