<svg width="28" height="28" viewBox="0 0 28 28" fill="none" xmlns="http://www.w3.org/2000/svg">
<path d="M15.644 13.9999L20.6606 8.99489C20.8803 8.7752 21.0037 8.47724 21.0037 8.16656C21.0037 7.85587 20.8803 7.55791 20.6606 7.33822C20.4409 7.11854 20.143 6.99512 19.8323 6.99512C19.5216 6.99512 19.2236 7.11854 19.004 7.33822L13.999 12.3549L8.99395 7.33822C8.77426 7.11854 8.4763 6.99512 8.16562 6.99512C7.85493 6.99512 7.55697 7.11854 7.33729 7.33822C7.1176 7.55791 6.99418 7.85587 6.99418 8.16656C6.99418 8.47724 7.1176 8.7752 7.33729 8.99489L12.354 13.9999L7.33729 19.0049C7.22794 19.1133 7.14114 19.2424 7.08191 19.3846C7.02268 19.5267 6.99219 19.6792 6.99219 19.8332C6.99219 19.9872 7.02268 20.1397 7.08191 20.2819C7.14114 20.4241 7.22794 20.5531 7.33729 20.6616C7.44574 20.7709 7.57478 20.8577 7.71695 20.9169C7.85912 20.9762 8.01161 21.0067 8.16562 21.0067C8.31963 21.0067 8.47212 20.9762 8.61429 20.9169C8.75646 20.8577 8.8855 20.7709 8.99395 20.6616L13.999 15.6449L19.004 20.6616C19.1124 20.7709 19.2414 20.8577 19.3836 20.9169C19.5258 20.9762 19.6783 21.0067 19.8323 21.0067C19.9863 21.0067 20.1388 20.9762 20.281 20.9169C20.4231 20.8577 20.5522 20.7709 20.6606 20.6616C20.77 20.5531 20.8568 20.4241 20.916 20.2819C20.9752 20.1397 21.0057 19.9872 21.0057 19.8332C21.0057 19.6792 20.9752 19.5267 20.916 19.3846C20.8568 19.2424 20.77 19.1133 20.6606 19.0049L15.644 13.9999Z" fill="white"/>
</svg>
