<svg width="28" height="28" viewBox="0 0 28 28" fill="none" xmlns="http://www.w3.org/2000/svg">
<path d="M25.5487 14C25.5487 13.8716 25.4787 13.7433 25.4437 13.615C25.3897 13.3886 25.3195 13.1663 25.2337 12.95C25.1754 12.81 25.0937 12.67 25.0237 12.5183C24.9537 12.3666 24.8487 12.1683 24.7437 12.005C24.6387 11.8416 24.4987 11.76 24.4987 11.6666C24.4987 11.5733 24.2654 11.375 24.137 11.235C24.0087 11.095 23.892 11.0016 23.7637 10.885L23.332 10.5L22.912 10.22C22.7472 10.1191 22.5757 10.0294 22.3987 9.95164L21.9437 9.74164C21.7531 9.67107 21.5583 9.61262 21.3604 9.56664C21.2036 9.52052 21.0437 9.48543 20.882 9.46164L20.6137 9.33331C20.1376 7.95787 19.2447 6.76503 18.0591 5.92077C16.8735 5.0765 15.4542 4.6228 13.9987 4.6228C12.5432 4.6228 11.1239 5.0765 9.93831 5.92077C8.7527 6.76503 7.85975 7.95787 7.3837 9.33331L7.1737 9.39164C7.012 9.41543 6.85216 9.45052 6.69536 9.49664C6.49742 9.54262 6.30259 9.60107 6.11203 9.67164L5.65703 9.88164C5.48007 9.95943 5.30857 10.0491 5.1437 10.15L4.7237 10.5L4.29203 10.8616C4.1637 10.9783 4.03536 11.0833 3.9187 11.2116C3.80203 11.34 3.6737 11.5033 3.55703 11.6433C3.44036 11.7833 3.34703 11.9116 3.2537 12.0633C3.16036 12.215 3.06703 12.4016 2.9737 12.5766C2.88036 12.7516 2.82203 12.8683 2.7637 13.0083C2.67788 13.2247 2.6077 13.4469 2.5537 13.6733C2.5537 13.8016 2.47203 13.93 2.4487 14.0583C2.37608 14.4234 2.33703 14.7944 2.33203 15.1666C2.3375 15.5228 2.37262 15.8779 2.43703 16.2283C2.43703 16.345 2.49536 16.45 2.5187 16.5666C2.57636 16.7958 2.64647 17.0217 2.7287 17.2433L2.8687 17.5816C2.9714 17.8066 3.0883 18.0248 3.2187 18.235L3.38203 18.4916C3.39882 18.5243 3.41833 18.5556 3.44036 18.585L3.4987 18.6666C4.04206 19.3911 4.74663 19.9791 5.55662 20.3841C6.36661 20.7891 7.25977 21 8.16536 21H11.6654V19.4016C11.3109 19.6073 10.9085 19.7159 10.4987 19.7166C9.86666 19.7107 9.26266 19.4549 8.8187 19.005C8.60554 18.7845 8.43794 18.5241 8.3255 18.2388C8.21305 17.9534 8.15796 17.6487 8.16338 17.342C8.1688 17.0354 8.23461 16.7328 8.35707 16.4516C8.47953 16.1704 8.65621 15.9162 8.87703 15.7033L12.377 12.32C12.8125 11.9003 13.3939 11.666 13.9987 11.6666C14.6165 11.6692 15.2081 11.9168 15.6437 12.355L19.1437 15.855C19.5783 16.2922 19.8222 16.8835 19.8222 17.5C19.8222 18.1164 19.5783 18.7078 19.1437 19.145C18.7081 19.5832 18.1165 19.8307 17.4987 19.8333C17.0883 19.8372 16.6847 19.7282 16.332 19.5183V21H19.832C20.7376 21 21.6308 20.7891 22.4408 20.3841C23.2508 19.9791 23.9553 19.3911 24.4987 18.6666L24.557 18.6083C24.5791 18.5789 24.5986 18.5477 24.6154 18.515L24.7787 18.2583C24.9091 18.0482 25.026 17.83 25.1287 17.605L25.2687 17.2666C25.3509 17.0451 25.421 16.8192 25.4787 16.59C25.4787 16.4733 25.537 16.3683 25.5604 16.2516C25.6261 15.8936 25.6612 15.5306 25.6654 15.1666C25.664 14.7749 25.6249 14.3842 25.5487 14V14Z" fill="white"/>
<path d="M14.827 13.1716C14.6089 12.9579 14.3157 12.8381 14.0103 12.8381C13.705 12.8381 13.4117 12.9579 13.1937 13.1716L9.69367 16.555C9.56987 16.6571 9.46848 16.7837 9.39585 16.9268C9.32321 17.07 9.28089 17.2265 9.27152 17.3868C9.26215 17.547 9.28595 17.7074 9.34142 17.858C9.39688 18.0086 9.48283 18.1462 9.59388 18.2621C9.70493 18.3779 9.83869 18.4697 9.98681 18.5315C10.1349 18.5933 10.2942 18.6239 10.4547 18.6214C10.6152 18.6188 10.7734 18.5832 10.9195 18.5167C11.0655 18.4502 11.1963 18.3543 11.3037 18.235L12.832 16.7533V23.3333C12.832 23.6427 12.9549 23.9395 13.1737 24.1583C13.3925 24.3771 13.6892 24.5 13.9987 24.5C14.3081 24.5 14.6048 24.3771 14.8236 24.1583C15.0424 23.9395 15.1653 23.6427 15.1653 23.3333V16.8116L16.6703 18.3283C16.7788 18.4377 16.9078 18.5244 17.05 18.5837C17.1922 18.6429 17.3447 18.6734 17.4987 18.6734C17.6527 18.6734 17.8052 18.6429 17.9473 18.5837C18.0895 18.5244 18.2185 18.4377 18.327 18.3283C18.4363 18.2198 18.5231 18.0908 18.5824 17.9486C18.6416 17.8065 18.6721 17.654 18.6721 17.5C18.6721 17.346 18.6416 17.1935 18.5824 17.0513C18.5231 16.9091 18.4363 16.7801 18.327 16.6716L14.827 13.1716Z" fill="white"/>
</svg>
