<svg width="28" height="28" viewBox="0 0 28 28" fill="none" xmlns="http://www.w3.org/2000/svg">
<path d="M8.16797 21V19.8333C8.16797 18.2862 8.78255 16.8025 9.87651 15.7085C10.9705 14.6146 12.4542 14 14.0013 14M14.0013 14C15.5484 14 17.0321 14.6146 18.1261 15.7085C19.2201 16.8025 19.8346 18.2862 19.8346 19.8333V21M14.0013 14C14.9296 14 15.8198 13.6313 16.4762 12.9749C17.1326 12.3185 17.5013 11.4283 17.5013 10.5C17.5013 9.57174 17.1326 8.6815 16.4762 8.02513C15.8198 7.36875 14.9296 7 14.0013 7C13.073 7 12.1828 7.36875 11.5264 8.02513C10.8701 8.6815 10.5013 9.57174 10.5013 10.5C10.5013 11.4283 10.8701 12.3185 11.5264 12.9749C12.1828 13.6313 13.073 14 14.0013 14ZM1.16797 21V19.8333C1.16797 18.9051 1.53672 18.0148 2.19309 17.3585C2.84947 16.7021 3.73971 16.3333 4.66797 16.3333M4.66797 16.3333C5.28681 16.3333 5.8803 16.0875 6.31788 15.6499C6.75547 15.2123 7.0013 14.6188 7.0013 14C7.0013 13.3812 6.75547 12.7877 6.31788 12.3501C5.8803 11.9125 5.28681 11.6667 4.66797 11.6667C4.04913 11.6667 3.45564 11.9125 3.01805 12.3501C2.58047 12.7877 2.33464 13.3812 2.33464 14C2.33464 14.6188 2.58047 15.2123 3.01805 15.6499C3.45564 16.0875 4.04913 16.3333 4.66797 16.3333ZM26.8346 21V19.8333C26.8346 18.9051 26.4659 18.0148 25.8095 17.3585C25.1531 16.7021 24.2629 16.3333 23.3346 16.3333M23.3346 16.3333C23.9535 16.3333 24.547 16.0875 24.9845 15.6499C25.4221 15.2123 25.668 14.6188 25.668 14C25.668 13.3812 25.4221 12.7877 24.9845 12.3501C24.547 11.9125 23.9535 11.6667 23.3346 11.6667C22.7158 11.6667 22.1223 11.9125 21.6847 12.3501C21.2471 12.7877 21.0013 13.3812 21.0013 14C21.0013 14.6188 21.2471 15.2123 21.6847 15.6499C22.1223 16.0875 22.7158 16.3333 23.3346 16.3333Z" stroke="#F1F1F5" stroke-width="1.5" stroke-linecap="round" stroke-linejoin="round"/>
</svg>
