<svg width="28" height="28" viewBox="0 0 28 28" fill="none" xmlns="http://www.w3.org/2000/svg">
<path d="M10.5 3.5H5.83333C5.21449 3.5 4.621 3.74583 4.18342 4.18342C3.74583 4.621 3.5 5.21449 3.5 5.83333V10.5C3.5 11.1188 3.74583 11.7123 4.18342 12.1499C4.621 12.5875 5.21449 12.8333 5.83333 12.8333H10.5C11.1188 12.8333 11.7123 12.5875 12.1499 12.1499C12.5875 11.7123 12.8333 11.1188 12.8333 10.5V5.83333C12.8333 5.21449 12.5875 4.621 12.1499 4.18342C11.7123 3.74583 11.1188 3.5 10.5 3.5ZM22.1667 3.5H17.5C16.8812 3.5 16.2877 3.74583 15.8501 4.18342C15.4125 4.621 15.1667 5.21449 15.1667 5.83333V10.5C15.1667 11.1188 15.4125 11.7123 15.8501 12.1499C16.2877 12.5875 16.8812 12.8333 17.5 12.8333H22.1667C22.7855 12.8333 23.379 12.5875 23.8166 12.1499C24.2542 11.7123 24.5 11.1188 24.5 10.5V5.83333C24.5 5.21449 24.2542 4.621 23.8166 4.18342C23.379 3.74583 22.7855 3.5 22.1667 3.5ZM10.5 15.1667H5.83333C5.21449 15.1667 4.621 15.4125 4.18342 15.8501C3.74583 16.2877 3.5 16.8812 3.5 17.5V22.1667C3.5 22.7855 3.74583 23.379 4.18342 23.8166C4.621 24.2542 5.21449 24.5 5.83333 24.5H10.5C11.1188 24.5 11.7123 24.2542 12.1499 23.8166C12.5875 23.379 12.8333 22.7855 12.8333 22.1667V17.5C12.8333 16.8812 12.5875 16.2877 12.1499 15.8501C11.7123 15.4125 11.1188 15.1667 10.5 15.1667ZM22.1667 15.1667H17.5C16.8812 15.1667 16.2877 15.4125 15.8501 15.8501C15.4125 16.2877 15.1667 16.8812 15.1667 17.5V22.1667C15.1667 22.7855 15.4125 23.379 15.8501 23.8166C16.2877 24.2542 16.8812 24.5 17.5 24.5H22.1667C22.7855 24.5 23.379 24.2542 23.8166 23.8166C24.2542 23.379 24.5 22.7855 24.5 22.1667V17.5C24.5 16.8812 24.2542 16.2877 23.8166 15.8501C23.379 15.4125 22.7855 15.1667 22.1667 15.1667Z" fill="white"/>
</svg>
