<svg width="37" height="36" viewBox="0 0 37 36" fill="none" xmlns="http://www.w3.org/2000/svg">
<path d="M30.11 10.9948L23.45 3.49478C23.3098 3.33939 23.1385 3.21508 22.9474 3.12982C22.7562 3.04457 22.5493 3.00028 22.34 2.99978H10.34C9.84162 2.99384 9.34696 3.08612 8.88425 3.27137C8.42154 3.45661 7.99986 3.73119 7.64327 4.07941C7.28669 4.42764 7.00219 4.8427 6.80603 5.30088C6.60986 5.75907 6.50587 6.2514 6.5 6.74978V29.2498C6.50587 29.7482 6.60986 30.2405 6.80603 30.6987C7.00219 31.1569 7.28669 31.5719 7.64327 31.9202C7.99986 32.2684 8.42154 32.543 8.88425 32.7282C9.34696 32.9134 9.84162 33.0057 10.34 32.9998H26.66C27.1584 33.0057 27.653 32.9134 28.1157 32.7282C28.5785 32.543 29.0001 32.2684 29.3567 31.9202C29.7133 31.5719 29.9978 31.1569 30.194 30.6987C30.3901 30.2405 30.4941 29.7482 30.5 29.2498V11.9998C30.499 11.628 30.36 11.2699 30.11 10.9948V10.9948ZM21.5 5.99978L27.11 11.9998H22.61C22.4529 11.9903 22.2993 11.9496 22.1581 11.8801C22.0169 11.8106 21.891 11.7137 21.7877 11.595C21.6843 11.4763 21.6057 11.3383 21.5563 11.1888C21.5069 11.0394 21.4878 10.8817 21.5 10.7248V5.99978Z" fill="#1D92F1"/>
</svg>
