<svg width="24" height="24" viewBox="0 0 24 24" fill="none" xmlns="http://www.w3.org/2000/svg">
<path d="M19.0003 19.9999H5.0003C4.73508 19.9999 4.48073 20.1052 4.29319 20.2928C4.10565 20.4803 4.0003 20.7346 4.0003 20.9999C4.0003 21.2651 4.10565 21.5194 4.29319 21.707C4.48073 21.8945 4.73508 21.9999 5.0003 21.9999H19.0003C19.2655 21.9999 19.5199 21.8945 19.7074 21.707C19.8949 21.5194 20.0003 21.2651 20.0003 20.9999C20.0003 20.7346 19.8949 20.4803 19.7074 20.2928C19.5199 20.1052 19.2655 19.9999 19.0003 19.9999ZM5.0003 17.9999H5.0903L9.2603 17.6199C9.71709 17.5744 10.1443 17.3731 10.4703 17.0499L19.4703 8.04986C19.8196 7.68083 20.0084 7.18837 19.9953 6.68039C19.9822 6.17242 19.7682 5.69037 19.4003 5.33986L16.6603 2.59986C16.3027 2.26395 15.8341 2.07122 15.3436 2.05831C14.8532 2.0454 14.3751 2.21323 14.0003 2.52986L5.0003 11.5299C4.67706 11.8558 4.4758 12.2831 4.4303 12.7399L4.0003 16.9099C3.98683 17.0563 4.00583 17.204 4.05596 17.3422C4.10608 17.4805 4.1861 17.606 4.2903 17.7099C4.38374 17.8025 4.49455 17.8759 4.61639 17.9256C4.73823 17.9754 4.86869 18.0006 5.0003 17.9999ZM15.2703 3.99986L18.0003 6.72986L16.0003 8.67986L13.3203 5.99986L15.2703 3.99986ZM6.3703 12.9099L12.0003 7.31986L14.7003 10.0199L9.1003 15.6199L6.1003 15.8999L6.3703 12.9099Z" fill="white"/>
</svg>
