<svg width="28" height="28" viewBox="0 0 28 28" fill="none" xmlns="http://www.w3.org/2000/svg">
<path d="M16.332 13.9975C16.332 11.0905 13.6289 8.16699 10.332 8.16699C9.94151 8.16699 8.65424 8.167 8.33203 8.167C5.01833 8.167 2.33203 10.7774 2.33203 13.9975C2.33203 16.7723 4.32672 19.0945 6.9987 19.6836C7.42752 19.7782 7.87377 19.8281 8.33203 19.8281" stroke="#F1F1F5" stroke-width="1.87327" stroke-linecap="round" stroke-linejoin="round"/>
<path d="M11.668 13.9975C11.668 16.9045 14.3711 19.8281 17.668 19.8281C18.0585 19.8281 19.3458 19.8281 19.6679 19.8281C22.9817 19.8281 25.668 17.2177 25.668 13.9975C25.668 11.2227 23.6733 8.90065 21.0013 8.31147C20.5724 8.21691 20.1262 8.16699 19.6679 8.16699" stroke="#F1F1F5" stroke-width="1.87327" stroke-linecap="round" stroke-linejoin="round"/>
</svg>
