<svg width="36" height="36" viewBox="0 0 36 36" fill="none" xmlns="http://www.w3.org/2000/svg">
<path d="M27 4.5H9C7.80653 4.5 6.66193 4.97411 5.81802 5.81802C4.97411 6.66193 4.5 7.80653 4.5 9V27C4.5 28.1935 4.97411 29.3381 5.81802 30.182C6.66193 31.0259 7.80653 31.5 9 31.5H27C28.1935 31.5 29.3381 31.0259 30.182 30.182C31.0259 29.3381 31.5 28.1935 31.5 27V9C31.5 7.80653 31.0259 6.66193 30.182 5.81802C29.3381 4.97411 28.1935 4.5 27 4.5ZM12 10.5C12.445 10.5 12.88 10.632 13.25 10.8792C13.62 11.1264 13.9084 11.4778 14.0787 11.889C14.249 12.3001 14.2936 12.7525 14.2068 13.189C14.12 13.6254 13.9057 14.0263 13.591 14.341C13.2763 14.6557 12.8754 14.87 12.439 14.9568C12.0025 15.0436 11.5501 14.999 11.139 14.8287C10.7278 14.6584 10.3764 14.37 10.1292 14C9.88196 13.63 9.75 13.195 9.75 12.75C9.75 12.1533 9.98705 11.581 10.409 11.159C10.831 10.7371 11.4033 10.5 12 10.5V10.5ZM28.5 26.745C28.5331 27.1765 28.3939 27.6035 28.1127 27.9325C27.8315 28.2615 27.4314 28.4655 27 28.5H9L20.355 18.27C20.5457 18.0961 20.7944 17.9997 21.0525 17.9997C21.3106 17.9997 21.5593 18.0961 21.75 18.27L28.5 24.99V26.745Z" fill="#F95050"/>
</svg>
