<svg width="28" height="28" viewBox="0 0 28 28" fill="none" xmlns="http://www.w3.org/2000/svg">
<path d="M21.0016 17.4999C20.0851 17.5007 19.2054 17.8609 18.5516 18.5032L9.33492 14.3966V13.6149L18.5516 9.49658C19.1289 10.0624 19.8842 10.411 20.6894 10.4831C21.4945 10.5552 22.2998 10.3464 22.9684 9.89215C23.6371 9.43789 24.1279 8.76617 24.3575 7.9911C24.587 7.21602 24.5413 6.38537 24.2279 5.64022C23.9145 4.89508 23.3528 4.28138 22.6383 3.90336C21.9238 3.52533 21.1004 3.4063 20.3081 3.56647C19.5158 3.72663 18.8033 4.15613 18.2917 4.782C17.7801 5.40788 17.5009 6.19155 17.5016 6.99991V7.39658L8.28492 11.5032C7.793 11.02 7.16929 10.6928 6.49206 10.5627C5.81484 10.4327 5.11428 10.5056 4.47835 10.7723C3.84242 11.039 3.29945 11.4876 2.9176 12.0619C2.53574 12.6361 2.33203 13.3103 2.33203 13.9999C2.33203 14.6895 2.53574 15.3637 2.9176 15.938C3.29945 16.5122 3.84242 16.9608 4.47835 17.2275C5.11428 17.4942 5.81484 17.5672 6.49206 17.4371C7.16929 17.3071 7.793 16.9799 8.28492 16.4966L17.5016 20.6149V20.9999C17.5016 21.6921 17.7069 22.3688 18.0914 22.9444C18.476 23.52 19.0227 23.9686 19.6622 24.2335C20.3017 24.4984 21.0055 24.5677 21.6844 24.4327C22.3633 24.2976 22.987 23.9643 23.4765 23.4748C23.9659 22.9853 24.2993 22.3617 24.4343 21.6827C24.5694 21.0038 24.5001 20.3001 24.2352 19.6605C23.9703 19.021 23.5217 18.4744 22.9461 18.0898C22.3705 17.7052 21.6938 17.4999 21.0016 17.4999ZM21.0016 5.83324C21.2323 5.83324 21.4579 5.90167 21.6497 6.02986C21.8416 6.15806 21.9911 6.34027 22.0794 6.55345C22.1677 6.76663 22.1909 7.0012 22.1458 7.22752C22.1008 7.45383 21.9897 7.66171 21.8265 7.82487C21.6634 7.98803 21.4555 8.09914 21.2292 8.14416C21.0029 8.18918 20.7683 8.16607 20.5551 8.07777C20.3419 7.98947 20.1597 7.83993 20.0315 7.64808C19.9033 7.45622 19.8349 7.23065 19.8349 6.99991C19.8349 6.69049 19.9578 6.39374 20.1766 6.17495C20.3954 5.95616 20.6922 5.83324 21.0016 5.83324ZM5.83492 15.1666C5.60417 15.1666 5.37861 15.0982 5.18675 14.97C4.9949 14.8418 4.84536 14.6596 4.75706 14.4464C4.66876 14.2332 4.64565 13.9986 4.69067 13.7723C4.73568 13.546 4.8468 13.3381 5.00996 13.175C5.17312 13.0118 5.381 12.9007 5.60731 12.8557C5.83362 12.8106 6.0682 12.8337 6.28138 12.922C6.49456 13.0104 6.67677 13.1599 6.80497 13.3517C6.93316 13.5436 7.00159 13.7692 7.00159 13.9999C7.00159 14.3093 6.87867 14.6061 6.65988 14.8249C6.44108 15.0437 6.14434 15.1666 5.83492 15.1666ZM21.0016 22.1666C20.7708 22.1666 20.5453 22.0982 20.3534 21.97C20.1616 21.8418 20.012 21.6596 19.9237 21.4464C19.8354 21.2332 19.8123 20.9986 19.8573 20.7723C19.9024 20.546 20.0135 20.3381 20.1766 20.1749C20.3398 20.0118 20.5477 19.9007 20.774 19.8557C21.0003 19.8106 21.2349 19.8337 21.448 19.9221C21.6612 20.0104 21.8434 20.1599 21.9716 20.3517C22.0998 20.5436 22.1683 20.7692 22.1683 20.9999C22.1683 21.3093 22.0453 21.6061 21.8265 21.8249C21.6078 22.0437 21.311 22.1666 21.0016 22.1666Z" fill="white"/>
</svg>
