<svg width="23" height="24" viewBox="0 0 23 24" fill="none" xmlns="http://www.w3.org/2000/svg">
<path d="M11.3971 21.4793C10.1016 21.4793 8.87726 21.2305 7.72396 20.7328C6.57066 20.2352 5.5635 19.5598 4.70247 18.7066C3.84145 17.8535 3.16211 16.8503 2.66445 15.697C2.1668 14.5437 1.91797 13.3193 1.91797 12.0238C1.91797 9.52765 2.75924 7.37904 4.4418 5.57799C6.12435 3.77695 8.21372 2.78164 10.7099 2.59206V5.00924C8.89306 5.18303 7.37639 5.93741 6.1599 7.2724C4.9434 8.60738 4.33516 10.1912 4.33516 12.0238C4.33516 13.9829 5.0224 15.6457 6.39688 17.0122C7.77135 18.3788 9.43811 19.0621 11.3971 19.0621C12.5346 19.0621 13.6089 18.8054 14.6201 18.2919C15.6312 17.7785 16.4922 17.0557 17.2031 16.1236L19.2885 17.3322C18.3722 18.6434 17.2229 19.6625 15.8405 20.3892C14.4581 21.1159 12.977 21.4793 11.3971 21.4793ZM19.9758 16.0525L17.8904 14.8913C18.0799 14.4015 18.2221 13.9157 18.3169 13.4339C18.4117 12.952 18.4591 12.4741 18.4591 12.0001C18.4591 10.1675 17.8548 8.57973 16.6462 7.23685C15.4376 5.89397 13.9328 5.14353 12.1318 4.98555V2.56836C14.6122 2.74214 16.6897 3.72561 18.3643 5.51875C20.039 7.31189 20.8763 9.44076 20.8763 11.9053C20.8763 12.6163 20.8013 13.3154 20.6512 14.0026C20.5011 14.6898 20.276 15.3731 19.9758 16.0525Z" fill="white"/>
</svg>
