<svg width="37" height="36" viewBox="0 0 37 36" fill="none" xmlns="http://www.w3.org/2000/svg">
<path d="M32 10.725C31.5443 10.5198 31.0383 10.4531 30.5449 10.5331C30.0515 10.6131 29.5925 10.8363 29.225 11.175L26 14.175V12C26 10.8065 25.5259 9.66193 24.682 8.81802C23.8381 7.97411 22.6935 7.5 21.5 7.5H8C6.80653 7.5 5.66193 7.97411 4.81802 8.81802C3.97411 9.66193 3.5 10.8065 3.5 12V24C3.5 25.1935 3.97411 26.3381 4.81802 27.182C5.66193 28.0259 6.80653 28.5 8 28.5H21.5C22.6935 28.5 23.8381 28.0259 24.682 27.182C25.5259 26.3381 26 25.1935 26 24V21.825L29.24 24.825C29.717 25.2568 30.3366 25.4972 30.98 25.5C31.337 25.4992 31.6898 25.4225 32.015 25.275C32.4574 25.096 32.8364 24.7892 33.1036 24.3938C33.3708 23.9984 33.514 23.5322 33.515 23.055V12.945C33.5128 12.466 33.3674 11.9987 33.0974 11.603C32.8274 11.2074 32.4452 10.9016 32 10.725V10.725Z" fill="#3BC963"/>
</svg>
